<svg xmlns="http://www.w3.org/2000/svg" xmlns:xlink="http://www.w3.org/1999/xlink" width="432.209" height="381.177" viewBox="0 0 432.209 381.177">
  <defs>
    <style>
      .cls-1 {
        fill: none;
      }

      .cls-2 {
        fill: #ffedff;
      }

      .cls-3 {
        fill: #f5b1f5;
      }

      .cls-4 {
        opacity: 0.5;
      }

      .cls-5 {
        fill: #b435ff;
      }

      .cls-6 {
        fill: #ffa13f;
      }

      .cls-7 {
        opacity: 0.1;
      }

      .cls-8 {
        fill: url(#linear-gradient);
      }

      .cls-9 {
        opacity: 0.2;
      }

      .cls-10 {
        clip-path: url(#clip-path);
      }

      .cls-11 {
        fill: #423a64;
      }

      .cls-12 {
        fill: #ee3a4c;
      }

      .cls-13 {
        fill: #ffd4b0;
      }

      .cls-14 {
        fill: #7a6654;
      }

      .cls-15 {
        fill: #ffb698;
      }

      .cls-16 {
        fill: #ffaa31;
      }

      .cls-17 {
        fill: #ffc170;
      }

      .cls-18 {
        fill: #c7c7c7;
      }

      .cls-19 {
        fill: #ffa6f5;
      }
    </style>
    <linearGradient id="linear-gradient" x1="0.025" y1="0.458" x2="0.908" y2="0.458" gradientUnits="objectBoundingBox">
      <stop offset="0" stop-color="#fbff00"/>
      <stop offset="1" stop-color="#a0d10a"/>
    </linearGradient>
    <clipPath id="clip-path">
      <path id="Caminho_33" data-name="Caminho 33" class="cls-1" d="M181.331,214.244c-21.857,13.69-46.573,23.465-65.115,41.392s-29.15,48.115-15.028,69.7c7.71,11.782,21.476,19.081,27.454,31.83,5.709,12.175,2.931,26.836-3.16,38.825s-15.166,22.154-22.806,33.221S88.633,453.02,89.116,466.459s9.842,27.278,23.192,28.893c12.813,1.551,24.012-7.753,34.584-15.156a147.41,147.41,0,0,1,118.536-21.972c24.683,6.155,47.259,18.638,71.055,27.636s50.49,14.444,74.5,6.032c18.721-6.559,33.736-20.86,46.091-36.379,10.927-13.725,20.621-29.92,20.049-47.455-.665-20.383-14.988-37.705-30.446-51.007s-33.091-24.718-44.6-41.551c-16.755-24.5-17.765-56.063-25.953-84.593-9.336-32.529-29.73-62.946-59.657-78.747-23.056-12.175-65.119-17.918-86.413,1.732-7.708,7.113-8.584,18.765-14.016,27.6C207.659,195.123,194.75,205.838,181.331,214.244Z" transform="translate(-89.091 -141.045)"/>
    </clipPath>
  </defs>
  <g id="contact" transform="translate(-79.745 -121.392)">
    <path id="Caminho_1" data-name="Caminho 1" class="cls-2" d="M181.331,214.244c-21.857,13.69-46.573,23.465-65.115,41.392s-29.15,48.115-15.028,69.7c7.71,11.782,21.476,19.081,27.454,31.83,5.709,12.175,2.931,26.836-3.16,38.825s-15.166,22.154-22.806,33.221S88.633,453.02,89.116,466.459s9.842,27.278,23.192,28.893c12.813,1.551,24.012-7.753,34.584-15.156a147.41,147.41,0,0,1,118.536-21.972c24.683,6.155,47.259,18.638,71.055,27.636s50.49,14.444,74.5,6.032c18.721-6.559,33.736-20.86,46.091-36.379,10.927-13.725,20.621-29.92,20.049-47.455-.665-20.383-14.988-37.705-30.446-51.007s-33.091-24.718-44.6-41.551c-16.755-24.5-17.765-56.063-25.953-84.593-9.336-32.529-29.73-62.946-59.657-78.747-23.056-12.175-65.119-17.918-86.413,1.732-7.708,7.113-8.584,18.765-14.016,27.6C207.659,195.123,194.75,205.838,181.331,214.244Z" transform="translate(3.089 6.495)"/>
    <g id="Grupo_4" data-name="Grupo 4" transform="translate(85.794 148.088)">
      <g id="Grupo_1" data-name="Grupo 1" transform="translate(49.868 262.654)">
        <path id="Caminho_2" data-name="Caminho 2" class="cls-3" d="M123.1,341.531a1.384,1.384,0,0,1-1.237-.826,1.309,1.309,0,0,1-.093-.5,1.429,1.429,0,0,1,.093-.52,1.613,1.613,0,0,1,.293-.426,1.259,1.259,0,0,1,.439-.293,1.363,1.363,0,0,1,1.45.293,1.315,1.315,0,0,1,.279.426,1.448,1.448,0,0,1,.106.52,1.323,1.323,0,0,1-.106.5,1.3,1.3,0,0,1-.279.426,1.39,1.39,0,0,1-.945.4Z" transform="translate(-121.772 -338.866)"/>
      </g>
      <g id="Grupo_2" data-name="Grupo 2">
        <path id="Caminho_3" data-name="Caminho 3" class="cls-3" d="M129.968,404.924v.013h0a1.334,1.334,0,0,1-.745-1.73h0a1.319,1.319,0,0,1,1.716-.757h0a1.338,1.338,0,0,1,.758,1.728h0a1.352,1.352,0,0,1-1.237.838h0A1.292,1.292,0,0,1,129.968,404.924Zm-4.963-2.182h0a1.32,1.32,0,0,1-.612-1.783h0a1.33,1.33,0,0,1,1.768-.612h0a1.32,1.32,0,0,1,.613,1.783h0a1.314,1.314,0,0,1-1.2.745h0A1.284,1.284,0,0,1,125.006,402.742Zm-4.776-2.568a1.328,1.328,0,0,1-.479-1.823h0a1.336,1.336,0,0,1,1.823-.466h0a1.336,1.336,0,0,1,.466,1.823h0a1.331,1.331,0,0,1-1.144.652h0A1.2,1.2,0,0,1,120.229,400.174Zm-4.577-2.914h0a1.34,1.34,0,0,1-.333-1.849h0a1.315,1.315,0,0,1,1.849-.333v-.013a1.33,1.33,0,0,1,.333,1.863h0a1.31,1.31,0,0,1-1.091.572h0A1.345,1.345,0,0,1,115.652,397.261Zm282.425-.386a1.313,1.313,0,0,1,.319-1.849h0a1.322,1.322,0,0,1,1.848.306h0a1.339,1.339,0,0,1-.318,1.863h0a1.325,1.325,0,0,1-.772.24h0A1.291,1.291,0,0,1,398.077,396.875Zm-286.763-2.861a1.33,1.33,0,0,1-.186-1.875h0a1.316,1.316,0,0,1,1.863-.2h0a1.331,1.331,0,0,1,.2,1.876h0a1.348,1.348,0,0,1-1.036.492h0A1.422,1.422,0,0,1,111.315,394.014Zm291.074-.253a1.319,1.319,0,0,1,.253-1.863h0a1.319,1.319,0,0,1,1.863.241h0a1.338,1.338,0,0,1-.253,1.875h0a1.369,1.369,0,0,1-.8.266h0A1.355,1.355,0,0,1,402.388,393.761Zm4.2-3.273a1.331,1.331,0,0,1,.188-1.876h0a1.318,1.318,0,0,1,1.863.186h0a1.342,1.342,0,0,1-.173,1.876h0a1.393,1.393,0,0,1-.853.306h0A1.329,1.329,0,0,1,406.591,390.488Zm-299.361-.04h0a1.326,1.326,0,0,1-.053-1.876h0a1.314,1.314,0,0,1,1.876-.067h0a1.354,1.354,0,0,1,.067,1.889h0a1.4,1.4,0,0,1-.971.414h0A1.333,1.333,0,0,1,107.23,390.448Zm303.447-3.366a1.326,1.326,0,0,1,.12-1.876h0a1.326,1.326,0,0,1,1.876.106h0a1.343,1.343,0,0,1-.121,1.889h0a1.355,1.355,0,0,1-.877.333h0A1.344,1.344,0,0,1,410.677,387.082ZM103.412,386.6a1.326,1.326,0,0,1,.08-1.876h0a1.326,1.326,0,0,1,1.876.066h0a1.343,1.343,0,0,1-.067,1.889h0a1.4,1.4,0,0,1-.9.346h0A1.362,1.362,0,0,1,103.412,386.6Zm311.231-3.073a1.325,1.325,0,0,1,.053-1.876h0a1.341,1.341,0,0,1,1.889.053h0a1.313,1.313,0,0,1-.068,1.876h0a1.291,1.291,0,0,1-.9.359h0A1.317,1.317,0,0,1,414.642,383.53ZM99.884,382.493a1.309,1.309,0,0,1,.214-1.864h0a1.316,1.316,0,0,1,1.863.2h0a1.333,1.333,0,0,1-.213,1.875h0a1.281,1.281,0,0,1-.825.293h0A1.332,1.332,0,0,1,99.884,382.493Zm318.6-2.649a1.325,1.325,0,0,1,0-1.876h0a1.325,1.325,0,0,1,1.876-.013h0a1.341,1.341,0,0,1,0,1.889h0a1.332,1.332,0,0,1-.931.386h0A1.307,1.307,0,0,1,418.487,379.844Zm-321.835-1.7A1.34,1.34,0,0,1,97,376.292h0a1.326,1.326,0,0,1,1.849.346h0a1.317,1.317,0,0,1-.346,1.849h0a1.289,1.289,0,0,1-.745.226h0A1.351,1.351,0,0,1,96.653,378.141Zm325.546-2.1a1.34,1.34,0,0,1-.065-1.876h0a1.327,1.327,0,0,1,1.876-.08h0a1.345,1.345,0,0,1,.08,1.889h0a1.362,1.362,0,0,1-.985.426h0A1.354,1.354,0,0,1,422.2,376.039ZM93.752,373.564a1.329,1.329,0,0,1,.478-1.823h0a1.33,1.33,0,0,1,1.824.479h0a1.328,1.328,0,0,1-.479,1.823h0a1.371,1.371,0,0,1-.68.186h0A1.333,1.333,0,0,1,93.752,373.564Zm332.04-1.464a1.328,1.328,0,0,1-.133-1.876h0a1.34,1.34,0,0,1,1.876-.133h0a1.33,1.33,0,0,1,.133,1.876h0a1.314,1.314,0,0,1-1,.466h0A1.294,1.294,0,0,1,425.792,372.1ZM91.2,368.788a1.3,1.3,0,0,1,.612-1.77h0a1.3,1.3,0,0,1,1.77.6h0a1.32,1.32,0,0,1-.612,1.783h0a1.284,1.284,0,0,1-.572.133h0A1.312,1.312,0,0,1,91.2,368.788Zm338.054-.732a1.333,1.333,0,0,1-.2-1.876h0a1.344,1.344,0,0,1,1.876-.186h0a1.33,1.33,0,0,1,.2,1.864h0a1.314,1.314,0,0,1-1.038.491h0A1.312,1.312,0,0,1,429.251,368.056ZM89,363.825h-.013a1.325,1.325,0,0,1,.745-1.716h0a1.318,1.318,0,0,1,1.73.732h0a1.318,1.318,0,0,1-.732,1.73h0a1.343,1.343,0,0,1-.494.093h0A1.3,1.3,0,0,1,89,363.825Zm343.561.066a1.321,1.321,0,0,1-.251-1.863h0a1.319,1.319,0,0,1,1.861-.253h0a1.319,1.319,0,0,1,.254,1.863h0a1.316,1.316,0,0,1-1.064.519h0A1.288,1.288,0,0,1,432.563,363.892Zm3.181-4.271a1.324,1.324,0,0,1-.319-1.849h0a1.323,1.323,0,0,1,1.849-.319h0a1.325,1.325,0,0,1,.319,1.849h0a1.3,1.3,0,0,1-1.092.559h0A1.313,1.313,0,0,1,435.744,359.621Zm-348.551-.9h-.013a1.327,1.327,0,0,1,.878-1.663h0a1.327,1.327,0,0,1,1.663.878h0a1.32,1.32,0,0,1-.865,1.663h0a1.373,1.373,0,0,1-.4.053h0A1.309,1.309,0,0,1,87.193,358.716Zm351.585-3.473a1.318,1.318,0,0,1-.386-1.836h0a1.343,1.343,0,0,1,1.849-.386h0a1.331,1.331,0,0,1,.373,1.849h0a1.326,1.326,0,0,1-1.1.6h0A1.352,1.352,0,0,1,438.777,355.243Zm-353-1.77h0a1.325,1.325,0,0,1,1-1.582h0a1.318,1.318,0,0,1,1.6,1h0a1.345,1.345,0,0,1-1.011,1.6h0a1.988,1.988,0,0,1-.293.027h0A1.318,1.318,0,0,1,85.782,353.474Zm355.869-2.7a1.323,1.323,0,0,1-.44-1.823h0a1.341,1.341,0,0,1,1.837-.452h0a1.338,1.338,0,0,1,.438,1.836h0a1.335,1.335,0,0,1-1.143.639h0A1.371,1.371,0,0,1,441.651,350.773Zm-356.84-2.634a1.317,1.317,0,0,1,1.131-1.5h0a1.331,1.331,0,0,1,1.5,1.131h0a1.344,1.344,0,0,1-1.144,1.5h0c-.055,0-.12.013-.186.013h0A1.308,1.308,0,0,1,84.811,348.138Zm359.581-1.929a1.33,1.33,0,0,1-.506-1.809v-.013a1.314,1.314,0,0,1,1.809-.492h0a1.328,1.328,0,0,1,.5,1.809h0a1.334,1.334,0,0,1-1.156.679h0A1.291,1.291,0,0,1,444.392,346.209Zm-360.087-3.5a1.316,1.316,0,0,1,1.264-1.384h0a1.316,1.316,0,0,1,1.384,1.264h0a1.307,1.307,0,0,1-1.264,1.384h0a.577.577,0,0,1-.067.013h0A1.32,1.32,0,0,1,84.306,342.71Zm362.668-1.158a1.342,1.342,0,0,1-.572-1.8h0a1.341,1.341,0,0,1,1.795-.572h0a1.342,1.342,0,0,1,.573,1.8h0a1.349,1.349,0,0,1-1.184.719h0A1.382,1.382,0,0,1,446.973,341.552Zm-361.4-2.9a1.336,1.336,0,0,1-1.277-1.384h0a1.336,1.336,0,0,1,1.4-1.264h0a1.316,1.316,0,0,1,1.264,1.384h0a1.321,1.321,0,0,1-1.33,1.264H85.57ZM449.395,336.8a1.316,1.316,0,0,1-.625-1.77h-.013a1.336,1.336,0,0,1,1.783-.625h0a1.319,1.319,0,0,1,.624,1.77h0a1.323,1.323,0,0,1-1.2.758h0A1.207,1.207,0,0,1,449.395,336.8ZM85.929,333.343a1.324,1.324,0,0,1-1.131-1.5h0a1.346,1.346,0,0,1,1.517-1.131h0a1.332,1.332,0,0,1,1.118,1.5h0a1.328,1.328,0,0,1-1.3,1.144h0A1.009,1.009,0,0,1,85.929,333.343Zm365.715-1.357a1.316,1.316,0,0,1-.679-1.756h0a1.327,1.327,0,0,1,1.743-.679h0a1.332,1.332,0,0,1,.692,1.756h0a1.339,1.339,0,0,1-1.224.785h0A1.269,1.269,0,0,1,451.643,331.986ZM86.82,328.1a1.344,1.344,0,0,1-.971-1.623h0a1.335,1.335,0,0,1,1.623-.958h0a1.321,1.321,0,0,1,.958,1.61h0a1.32,1.32,0,0,1-1.291,1.011h0A1.314,1.314,0,0,1,86.82,328.1Zm366.912-1.011a1.335,1.335,0,0,1-.745-1.73h0a1.338,1.338,0,0,1,1.73-.744h0a1.341,1.341,0,0,1,.744,1.728h0a1.334,1.334,0,0,1-1.236.838h0A1.292,1.292,0,0,1,453.732,327.09ZM88.257,322.979a1.327,1.327,0,0,1-.772-1.716h0a1.335,1.335,0,0,1,1.716-.785h0a1.35,1.35,0,0,1,.772,1.716h0a1.347,1.347,0,0,1-1.251.865h0A1.428,1.428,0,0,1,88.257,322.979Zm367.391-.852a1.34,1.34,0,0,1-.8-1.7h0a1.323,1.323,0,0,1,1.7-.8h0a1.306,1.306,0,0,1,.8,1.688h0a1.327,1.327,0,0,1-1.252.891h0A1.409,1.409,0,0,1,455.648,322.127ZM90.293,318.056a1.329,1.329,0,0,1-.559-1.8h0v-.013h0a1.348,1.348,0,0,1,1.809-.546h0a1.336,1.336,0,0,1,.546,1.8h0a1.335,1.335,0,0,1-1.185.705h0A1.292,1.292,0,0,1,90.293,318.056ZM457.4,317.1a1.32,1.32,0,0,1-.865-1.663v-.013a1.349,1.349,0,0,1,1.676-.865h0a1.332,1.332,0,0,1,.852,1.676h0a1.309,1.309,0,0,1-1.264.931h0A1.4,1.4,0,0,1,457.4,317.1ZM92.94,313.452a1.337,1.337,0,0,1-.279-1.863h0a1.31,1.31,0,0,1,1.849-.293h0a1.326,1.326,0,0,1,.293,1.863h0a1.312,1.312,0,0,1-1.078.546h0A1.344,1.344,0,0,1,92.94,313.452Zm366.034-1.437a1.323,1.323,0,0,1-.931-1.637h0a1.324,1.324,0,0,1,1.637-.931h0a1.326,1.326,0,0,1,.931,1.637h0a1.331,1.331,0,0,1-1.277.985h0A1.664,1.664,0,0,1,458.975,312.015ZM96.253,309.275a1.341,1.341,0,0,1,0-1.889h0a1.313,1.313,0,0,1,1.876.013h0a1.325,1.325,0,0,1,0,1.876h0a1.363,1.363,0,0,1-.945.386h0A1.332,1.332,0,0,1,96.253,309.275Zm364.1-2.408a1.33,1.33,0,0,1-1-1.6h.013a1.312,1.312,0,0,1,1.6-.985h0a1.312,1.312,0,0,1,.985,1.6h0a1.334,1.334,0,0,1-1.291,1.025h0A1.127,1.127,0,0,1,460.358,306.866Zm-360.193-1.2a1.322,1.322,0,0,1,.306-1.849h0a1.32,1.32,0,0,1,1.849.293h0a1.335,1.335,0,0,1-.293,1.863h0a1.315,1.315,0,0,1-.785.253h0A1.343,1.343,0,0,1,100.165,305.669Zm4.431-2.954a1.309,1.309,0,0,1,.532-1.8h0a1.309,1.309,0,0,1,1.8.532h0a1.309,1.309,0,0,1-.532,1.8h0a1.2,1.2,0,0,1-.625.173h0A1.314,1.314,0,0,1,104.6,302.715Zm356.933-1.038a1.323,1.323,0,0,1-1.052-1.557h0a1.324,1.324,0,0,1,1.558-1.051h0a1.321,1.321,0,0,1,1.05,1.557h0a1.322,1.322,0,0,1-1.3,1.078h0A1.63,1.63,0,0,1,461.529,301.677Zm-352.21-1.4a1.329,1.329,0,0,1,.665-1.77h0a1.33,1.33,0,0,1,1.756.665h0a1.324,1.324,0,0,1-.652,1.756h0a1.41,1.41,0,0,1-.56.12h0A1.321,1.321,0,0,1,109.319,300.28Zm4.868-2.169a1.339,1.339,0,0,1,.693-1.756h0a1.333,1.333,0,0,1,1.743.692h0a1.332,1.332,0,0,1-.692,1.756h0a1.459,1.459,0,0,1-.532.106h0A1.314,1.314,0,0,1,114.187,298.112Zm4.871-2.142a1.321,1.321,0,0,1,.625-1.77h0a1.347,1.347,0,0,1,1.783.625h0a1.353,1.353,0,0,1-.639,1.783h0a1.423,1.423,0,0,1-.572.12h0A1.326,1.326,0,0,1,119.058,295.97Zm343.429.466a1.316,1.316,0,0,1-1.131-1.5h0a1.331,1.331,0,0,1,1.5-1.118h0a1.324,1.324,0,0,1,1.131,1.5h0a1.331,1.331,0,0,1-1.317,1.144h0A.784.784,0,0,1,462.487,296.435Zm-338.654-2.821a1.338,1.338,0,0,1,.467-1.823h0a1.328,1.328,0,0,1,1.823.479h0a1.33,1.33,0,0,1-.479,1.823h0a1.343,1.343,0,0,1-.665.173h0A1.337,1.337,0,0,1,123.833,293.615Zm4.512-2.807a1.337,1.337,0,0,1,.293-1.863h0a1.308,1.308,0,0,1,1.848.293h0a1.306,1.306,0,0,1-.278,1.849h0a1.362,1.362,0,0,1-.785.267h0A1.331,1.331,0,0,1,128.345,290.807Zm334.834.359a1.329,1.329,0,0,1-1.2-1.45h0a1.329,1.329,0,0,1,1.45-1.2h0a1.33,1.33,0,0,1,1.2,1.45h0a1.317,1.317,0,0,1-1.317,1.2h-.133Zm-330.629-3.632a1.339,1.339,0,0,1,.08-1.876h.013a1.327,1.327,0,0,1,1.876.093h0a1.327,1.327,0,0,1-.093,1.876h0a1.278,1.278,0,0,1-.891.346h0A1.323,1.323,0,0,1,132.549,287.534ZM463.6,285.858a1.324,1.324,0,0,1-1.277-1.37v-.013a1.324,1.324,0,0,1,1.37-1.277h0a1.347,1.347,0,0,1,1.291,1.384h0a1.333,1.333,0,0,1-1.33,1.277H463.6Zm-327.21-2a1.315,1.315,0,0,1-.093-1.876h0a1.327,1.327,0,0,1,1.876-.093h0a1.327,1.327,0,0,1,.093,1.876h0a1.326,1.326,0,0,1-.985.439h0A1.278,1.278,0,0,1,136.395,283.862Zm325.973-4.617a1.346,1.346,0,0,1,1.3-1.37h0a1.335,1.335,0,0,1,1.357,1.3h0a1.335,1.335,0,0,1-1.3,1.357H463.7A1.326,1.326,0,0,1,462.367,279.245Zm-322.5.6a1.338,1.338,0,0,1-.266-1.863h0v-.013h0a1.331,1.331,0,0,1,1.861-.253h0a1.333,1.333,0,0,1,.267,1.863h0a1.35,1.35,0,0,1-1.064.532h0A1.369,1.369,0,0,1,139.867,279.844Zm3.113-4.324a1.319,1.319,0,0,1-.412-1.836h0a1.33,1.33,0,0,1,1.836-.4h0a1.331,1.331,0,0,1,.412,1.836h0a1.337,1.337,0,0,1-1.131.612h0A1.251,1.251,0,0,1,142.981,275.52Zm319.094-1.5a1.34,1.34,0,0,1,1.211-1.45h0a1.337,1.337,0,0,1,1.437,1.211h0a1.339,1.339,0,0,1-1.2,1.45h-.12A1.331,1.331,0,0,1,462.075,274.016Zm-316.327-3.034a1.309,1.309,0,0,1-.532-1.8h0a1.325,1.325,0,0,1,1.8-.545h0a1.34,1.34,0,0,1,.545,1.809h0a1.363,1.363,0,0,1-1.184.692h0A1.324,1.324,0,0,1,145.748,270.983Zm315.688-2.155a1.338,1.338,0,0,1,1.1-1.53h0a1.318,1.318,0,0,1,1.517,1.1h0a1.329,1.329,0,0,1-1.091,1.53h0a1.225,1.225,0,0,1-.214.013h0A1.329,1.329,0,0,1,461.436,268.827Zm-313.226-2.568a1.324,1.324,0,0,1-.652-1.756h0a1.339,1.339,0,0,1,1.77-.652h0a1.339,1.339,0,0,1,.652,1.77h-.013a1.339,1.339,0,0,1-1.2.772h0A1.154,1.154,0,0,1,148.209,266.259ZM460.423,263.7a1.334,1.334,0,0,1,.986-1.61h0a1.347,1.347,0,0,1,1.6.985h0a1.332,1.332,0,0,1-.985,1.61h0a1.3,1.3,0,0,1-.306.04h0A1.334,1.334,0,0,1,460.423,263.7Zm-310.045-2.3a1.318,1.318,0,0,1-.732-1.73h0a1.318,1.318,0,0,1,1.73-.732h0a1.321,1.321,0,0,1,.73,1.73h0a1.321,1.321,0,0,1-1.236.838h0A1.312,1.312,0,0,1,150.378,261.4ZM459,258.689a1.332,1.332,0,0,1,.852-1.676h0a1.311,1.311,0,0,1,1.676.852h0a1.316,1.316,0,0,1-.852,1.676h0a1.408,1.408,0,0,1-.412.067h0A1.338,1.338,0,0,1,459,258.689ZM152.307,256.44a1.332,1.332,0,0,1-.825-1.69h0a1.334,1.334,0,0,1,1.7-.812h0a1.315,1.315,0,0,1,.812,1.69h0a1.327,1.327,0,0,1-1.251.891h0A1.278,1.278,0,0,1,152.307,256.44Zm304.884-2.648h0a1.341,1.341,0,0,1,.718-1.743h0a1.321,1.321,0,0,1,1.73.718h0a1.319,1.319,0,0,1-.705,1.743h0a1.453,1.453,0,0,1-.519.106h0A1.341,1.341,0,0,1,457.192,253.793ZM154.01,251.4a1.317,1.317,0,0,1-.878-1.663h0a1.329,1.329,0,0,1,1.65-.878h0a1.335,1.335,0,0,1,.891,1.663h0a1.337,1.337,0,0,1-1.277.945h0A1.306,1.306,0,0,1,154.01,251.4Zm300.973-2.315h0a1.322,1.322,0,0,1,.559-1.8h0a1.322,1.322,0,0,1,1.8.559h0a1.327,1.327,0,0,1-.559,1.8h0a1.293,1.293,0,0,1-.612.146h0A1.319,1.319,0,0,1,454.983,249.083ZM155.527,246.3a1.343,1.343,0,0,1-.945-1.637h0a1.329,1.329,0,0,1,1.637-.931h0a1.315,1.315,0,0,1,.931,1.623h0a1.318,1.318,0,0,1-1.277.985h0A1.45,1.45,0,0,1,155.527,246.3Zm296.848-1.73h0a1.332,1.332,0,0,1,.4-1.836h0a1.329,1.329,0,0,1,1.837.4h0a1.334,1.334,0,0,1-.4,1.849h0a1.349,1.349,0,0,1-.705.2h0A1.319,1.319,0,0,1,452.375,244.572Zm-295.5-3.433a1.312,1.312,0,0,1-.985-1.6h0a1.332,1.332,0,0,1,1.61-.985h0a1.335,1.335,0,0,1,.985,1.6v.013a1.335,1.335,0,0,1-1.291,1.011h0A1.312,1.312,0,0,1,156.871,241.14Zm292.5-.812v.013a1.336,1.336,0,0,1,.239-1.876h0a1.329,1.329,0,0,1,1.861.226h0a1.344,1.344,0,0,1-.225,1.876h0a1.371,1.371,0,0,1-.825.279h0A1.328,1.328,0,0,1,449.368,240.328Zm-3.393-3.912V236.4a1.326,1.326,0,0,1,.053-1.876h0a1.325,1.325,0,0,1,1.876.04h0a1.34,1.34,0,0,1-.041,1.889h0a1.375,1.375,0,0,1-.917.359h0A1.358,1.358,0,0,1,445.975,236.416Zm-287.894-.452a1.344,1.344,0,0,1-1.024-1.583h0a1.344,1.344,0,0,1,1.583-1.024h0a1.344,1.344,0,0,1,1.024,1.583h0a1.335,1.335,0,0,1-1.3,1.051h0A1.985,1.985,0,0,1,158.082,235.964Zm284.127-3.1a1.331,1.331,0,0,1-.158-1.876h0a1.34,1.34,0,0,1,1.876-.16h0a1.344,1.344,0,0,1,.16,1.876h0a1.319,1.319,0,0,1-1.025.479h0A1.308,1.308,0,0,1,442.209,232.864Zm-283.036-2.116a1.339,1.339,0,0,1-1.051-1.557h0a1.319,1.319,0,0,1,1.557-1.051h0a1.312,1.312,0,0,1,1.051,1.557h0a1.324,1.324,0,0,1-1.305,1.078h0A1.821,1.821,0,0,1,159.173,230.748Zm278.9-1a1.316,1.316,0,0,1-.359-1.836h0a1.315,1.315,0,0,1,1.835-.373h0a1.333,1.333,0,0,1,.374,1.849h0a1.313,1.313,0,0,1-1.1.585h0A1.289,1.289,0,0,1,438.072,229.75Zm-4.444-2.634h-.013a1.349,1.349,0,0,1-.559-1.8h0a1.325,1.325,0,0,1,1.8-.559h0v-.013h0a1.355,1.355,0,0,1,.572,1.809h0a1.334,1.334,0,0,1-1.184.705h0A1.378,1.378,0,0,1,433.628,227.116Zm-95.1-2.355a1.315,1.315,0,0,1,1.317-1.33h0a1.334,1.334,0,0,1,1.344,1.317h0a1.355,1.355,0,0,1-1.331,1.344h0A1.326,1.326,0,0,1,338.524,224.761Zm-4.071,1.211a1.324,1.324,0,0,1-1.251-1.4h0a1.316,1.316,0,0,1,1.384-1.264h0a1.327,1.327,0,0,1,1.264,1.4h0a1.321,1.321,0,0,1-1.331,1.264h-.066Zm9.38-1.3a1.344,1.344,0,0,1,1.264-1.4h0a1.336,1.336,0,0,1,1.4,1.264h0a1.336,1.336,0,0,1-1.264,1.4h-.066A1.349,1.349,0,0,1,343.833,224.668Zm5.322-.319a1.32,1.32,0,0,1,1.211-1.437h0a1.327,1.327,0,0,1,1.437,1.211h0a1.327,1.327,0,0,1-1.211,1.437h-.106A1.322,1.322,0,0,1,349.155,224.349Zm-20.077,1.184a1.33,1.33,0,0,1-1.184-1.464h0a1.333,1.333,0,0,1,1.477-1.171h0a1.32,1.32,0,0,1,1.171,1.464h0a1.335,1.335,0,0,1-1.317,1.184h0A.5.5,0,0,1,329.078,225.533Zm-168.907-.013a1.328,1.328,0,0,1-1.064-1.543h0a1.331,1.331,0,0,1,1.557-1.064h0a1.328,1.328,0,0,1,1.064,1.543h0a1.336,1.336,0,0,1-1.305,1.091h0A1.634,1.634,0,0,1,160.171,225.52Zm268.748-.572a1.333,1.333,0,0,1-.745-1.743h0a1.326,1.326,0,0,1,1.728-.732h0a1.345,1.345,0,0,1,.746,1.73h0a1.351,1.351,0,0,1-1.237.838h0A1.242,1.242,0,0,1,428.918,224.947Zm-74.468-1.1a1.327,1.327,0,0,1,1.171-1.464h0a1.333,1.333,0,0,1,1.477,1.171h0a1.34,1.34,0,0,1-1.171,1.477h-.146A1.327,1.327,0,0,1,354.45,223.843Zm-30.735.918a1.33,1.33,0,0,1-1.078-1.543h0a1.347,1.347,0,0,1,1.543-1.078h0a1.327,1.327,0,0,1,1.078,1.543h0a1.335,1.335,0,0,1-1.3,1.1h0A1.462,1.462,0,0,1,323.716,224.761Zm36.017-1.53a1.353,1.353,0,0,1,1.158-1.5h0a1.338,1.338,0,0,1,1.49,1.144h0a1.353,1.353,0,0,1-1.144,1.5h-.186A1.331,1.331,0,0,1,359.732,223.231Zm-41.313.386a1.325,1.325,0,0,1-.957-1.623h0a1.345,1.345,0,0,1,1.622-.958h0a1.346,1.346,0,0,1,.959,1.623h0a1.346,1.346,0,0,1-1.292,1h0A1.438,1.438,0,0,1,318.419,223.617Zm46.6-1.1a1.317,1.317,0,0,1,1.131-1.5h0a1.322,1.322,0,0,1,1.5,1.131h0a1.329,1.329,0,0,1-1.13,1.5h0a.94.94,0,0,1-.186.013h0A1.331,1.331,0,0,1,365.015,222.513Zm58.981.718h0a1.344,1.344,0,0,1-.891-1.663h0a1.335,1.335,0,0,1,1.663-.891h0a1.335,1.335,0,0,1,.891,1.663h0a1.337,1.337,0,0,1-1.277.945h0A2.063,2.063,0,0,1,424,223.231Zm-53.712-1.477a1.324,1.324,0,0,1,1.131-1.5h0a1.331,1.331,0,0,1,1.5,1.131h0a1.331,1.331,0,0,1-1.131,1.5h0a.943.943,0,0,1-.186.013h0A1.331,1.331,0,0,1,370.283,221.754Zm5.269-.745a1.326,1.326,0,0,1,1.131-1.5h0a1.324,1.324,0,0,1,1.5,1.131h0a1.335,1.335,0,0,1-1.131,1.5h0a.942.942,0,0,1-.186.013h0A1.331,1.331,0,0,1,375.552,221.009Zm-62.334,1.051h0a1.332,1.332,0,0,1-.825-1.69h0a1.332,1.332,0,0,1,1.69-.825h0a1.332,1.332,0,0,1,.825,1.69h0a1.321,1.321,0,0,1-1.251.9h0A1.277,1.277,0,0,1,313.218,222.06Zm105.735-.133a1.339,1.339,0,0,1-1.026-1.583h0a1.337,1.337,0,0,1,1.583-1.011h0a1.323,1.323,0,0,1,1.024,1.57h0a1.346,1.346,0,0,1-1.3,1.064h0A1.012,1.012,0,0,1,418.953,221.927Zm-38.132-1.637a1.34,1.34,0,0,1,1.171-1.477h0a1.328,1.328,0,0,1,1.477,1.158h0a1.333,1.333,0,0,1-1.158,1.49h-.16A1.346,1.346,0,0,1,380.821,220.291Zm32.983.732a1.331,1.331,0,0,1-1.131-1.5h0a1.324,1.324,0,0,1,1.5-1.131h0a1.318,1.318,0,0,1,1.131,1.5h0a1.332,1.332,0,0,1-1.317,1.144h0C413.924,221.036,413.871,221.022,413.8,221.022Zm-27.688-1.344a1.34,1.34,0,0,1,1.184-1.464h0a1.35,1.35,0,0,1,1.464,1.2h0a1.329,1.329,0,0,1-1.2,1.45h0a.41.41,0,0,1-.133.013h0A1.327,1.327,0,0,1,386.116,219.679Zm22.485.772a1.34,1.34,0,0,1-1.237-1.437h0A1.327,1.327,0,0,1,408.8,217.8h0a1.328,1.328,0,0,1,1.224,1.424h0a1.334,1.334,0,0,1-1.331,1.224H408.6Zm-17.19-1.264a1.317,1.317,0,0,1,1.236-1.41h0a1.338,1.338,0,0,1,1.425,1.237h0a1.327,1.327,0,0,1-1.237,1.41h0a.26.26,0,0,1-.093.013h0A1.347,1.347,0,0,1,391.412,219.186Zm-230.256,1.1a1.332,1.332,0,0,1-1.066-1.557h0a1.324,1.324,0,0,1,1.558-1.051h0a1.309,1.309,0,0,1,1.051,1.543h0a1.336,1.336,0,0,1-1.3,1.091h0A1.466,1.466,0,0,1,161.155,220.291Zm235.578-1.4a1.335,1.335,0,0,1,1.291-1.37h0a1.355,1.355,0,0,1,1.37,1.3h0a1.335,1.335,0,0,1-1.3,1.357h-.027A1.326,1.326,0,0,1,396.734,218.894Zm6.613,1.291a1.315,1.315,0,0,1-1.291-1.357h0a1.335,1.335,0,0,1,1.357-1.3h0a1.335,1.335,0,0,1,1.3,1.357h0a1.338,1.338,0,0,1-1.331,1.3h-.04Zm-95.184-.12a1.318,1.318,0,0,1-.665-1.756h0a1.31,1.31,0,0,1,1.756-.665h0a1.321,1.321,0,0,1,.665,1.756h0a1.334,1.334,0,0,1-1.211.785h0A1.3,1.3,0,0,1,308.162,220.064Zm-4.856-2.488a1.327,1.327,0,0,1-.492-1.809h0a1.344,1.344,0,0,1,1.823-.492h0a1.327,1.327,0,0,1,.478,1.823h0a1.314,1.314,0,0,1-1.143.665h0A1.36,1.36,0,0,1,303.306,217.576Zm-141.153-2.515a1.345,1.345,0,0,1-1.051-1.57h0a1.333,1.333,0,0,1,1.57-1.038h0a1.339,1.339,0,0,1,1.051,1.557h0a1.346,1.346,0,0,1-1.305,1.078h0A1.636,1.636,0,0,1,162.153,215.062Zm136.576-.479a1.335,1.335,0,0,1-.279-1.863h0a1.335,1.335,0,0,1,1.863-.279h0a1.337,1.337,0,0,1,.279,1.863h0a1.33,1.33,0,0,1-1.078.546h0A1.36,1.36,0,0,1,298.729,214.583Zm-4.2-3.513a1.327,1.327,0,0,1-.055-1.876h0a1.331,1.331,0,0,1,1.891-.053h0a1.313,1.313,0,0,1,.04,1.876h0a1.29,1.29,0,0,1-.958.412h0A1.332,1.332,0,0,1,294.525,211.07ZM163.2,209.846a1.344,1.344,0,0,1-1.024-1.583h0a1.344,1.344,0,0,1,1.583-1.025h0a1.344,1.344,0,0,1,1.024,1.583h0a1.335,1.335,0,0,1-1.3,1.051h0A1.985,1.985,0,0,1,163.2,209.846Zm127.582-2.794a1.327,1.327,0,0,1,.173-1.863h0a1.342,1.342,0,0,1,1.876.173h0a1.342,1.342,0,0,1-.173,1.876h0a1.365,1.365,0,0,1-.853.306h0A1.33,1.33,0,0,1,290.786,207.052Zm-126.437-2.408a1.343,1.343,0,0,1-1-1.6h0a1.333,1.333,0,0,1,1.6-1h0a1.333,1.333,0,0,1,1,1.6h0a1.336,1.336,0,0,1-1.3,1.025h0A1.091,1.091,0,0,1,164.348,204.644Zm123.191-1.969h0a1.344,1.344,0,0,1,.373-1.849h0a1.344,1.344,0,0,1,1.849.373h0a1.344,1.344,0,0,1-.373,1.849h0a1.351,1.351,0,0,1-.732.226h0A1.332,1.332,0,0,1,287.539,202.675ZM165.6,199.468a1.323,1.323,0,0,1-.945-1.623h0a1.313,1.313,0,0,1,1.623-.945h0a1.322,1.322,0,0,1,.945,1.623h0a1.318,1.318,0,0,1-1.277.985h0A1.45,1.45,0,0,1,165.6,199.468Zm119.12-1.424a1.346,1.346,0,0,1,.519-1.823h0a1.346,1.346,0,0,1,1.809.519h0a1.323,1.323,0,0,1-.519,1.809h0a1.247,1.247,0,0,1-.639.173h0A1.374,1.374,0,0,1,284.719,198.045ZM167,194.333a1.335,1.335,0,0,1-.891-1.663h0a1.335,1.335,0,0,1,1.663-.891h0a1.345,1.345,0,0,1,.891,1.663h0a1.337,1.337,0,0,1-1.277.945h0A1.924,1.924,0,0,1,167,194.333Zm115.235-1.078a1.346,1.346,0,0,1,.6-1.783h0a1.332,1.332,0,0,1,1.784.612h0a1.329,1.329,0,0,1-.6,1.783h0a1.343,1.343,0,0,1-.585.133h0A1.337,1.337,0,0,1,282.231,193.255Zm-113.651-4.018a1.332,1.332,0,0,1-.825-1.69h0a1.315,1.315,0,0,1,1.69-.812h0a1.322,1.322,0,0,1,.825,1.69h0a1.327,1.327,0,0,1-1.251.891h0A1.276,1.276,0,0,1,168.579,189.237Zm111.363-.825a1.339,1.339,0,0,1,.652-1.77h0a1.333,1.333,0,0,1,1.77.665h0a1.329,1.329,0,0,1-.665,1.756h0a1.3,1.3,0,0,1-.546.12h0A1.342,1.342,0,0,1,279.942,188.412Zm-2.209-4.856a1.329,1.329,0,0,1,.665-1.756h0a1.32,1.32,0,0,1,1.756.652h0v.013h0a1.324,1.324,0,0,1-.653,1.756h0a1.4,1.4,0,0,1-.557.12h0A1.334,1.334,0,0,1,277.734,183.556Zm-107.358.679a1.323,1.323,0,0,1-.745-1.73h0a1.323,1.323,0,0,1,1.73-.745h0a1.345,1.345,0,0,1,.745,1.73h0a1.339,1.339,0,0,1-1.237.838h0A1.246,1.246,0,0,1,170.376,184.234Zm105.135-5.482h0a1.338,1.338,0,0,1,.627-1.783h0a1.333,1.333,0,0,1,1.77.639h0a1.321,1.321,0,0,1-.625,1.77h0a1.244,1.244,0,0,1-.572.133h0A1.33,1.33,0,0,1,275.51,178.752Zm-103.086.559a1.328,1.328,0,0,1-.652-1.77h0a1.338,1.338,0,0,1,1.77-.639h0a1.326,1.326,0,0,1,.639,1.77h.013a1.359,1.359,0,0,1-1.211.772h0A1.192,1.192,0,0,1,172.425,179.311Zm100.732-5.269a1.321,1.321,0,0,1,.545-1.8h0a1.321,1.321,0,0,1,1.8.546h0a1.322,1.322,0,0,1-.546,1.8h0a1.324,1.324,0,0,1-.625.16h0A1.312,1.312,0,0,1,273.157,174.042Zm-98.4.492a1.339,1.339,0,0,1-.532-1.809h0a1.338,1.338,0,0,1,1.809-.532h0a1.339,1.339,0,0,1,.532,1.809h0a1.359,1.359,0,0,1-1.172.692h0A1.375,1.375,0,0,1,174.753,174.535Zm95.8-5.029h0a1.319,1.319,0,0,1,.426-1.823h0a1.325,1.325,0,0,1,1.836.426h0a1.321,1.321,0,0,1-.426,1.823h0a1.266,1.266,0,0,1-.705.2h0A1.318,1.318,0,0,1,270.549,169.505Zm-93.148.412a1.331,1.331,0,0,1-.386-1.849h0a1.329,1.329,0,0,1,1.836-.386h0a1.343,1.343,0,0,1,.386,1.849v-.013a1.313,1.313,0,0,1-1.118.612h0A1.325,1.325,0,0,1,177.4,169.918Zm2.994-4.4a1.32,1.32,0,0,1-.24-1.863h0a1.321,1.321,0,0,1,1.863-.24h0a1.323,1.323,0,0,1,.239,1.863h0a1.31,1.31,0,0,1-1.051.519h0A1.306,1.306,0,0,1,180.394,165.514Zm87.214-.293a1.322,1.322,0,0,1,.253-1.863h0a1.332,1.332,0,0,1,1.863.253h0a1.32,1.32,0,0,1-.253,1.863h0a1.306,1.306,0,0,1-.812.279h0A1.323,1.323,0,0,1,267.609,165.221Zm-83.875-3.845a1.337,1.337,0,0,1-.067-1.876h0a1.342,1.342,0,0,1,1.889-.067h0a1.338,1.338,0,0,1,.067,1.876h0a1.362,1.362,0,0,1-.985.426h0A1.348,1.348,0,0,1,183.734,161.376Zm80.535-.12a1.314,1.314,0,0,1,.067-1.876h0a1.314,1.314,0,0,1,1.876.067h0a1.326,1.326,0,0,1-.067,1.876h0a1.324,1.324,0,0,1-.9.359h0A1.311,1.311,0,0,1,264.269,161.256Zm-76.823-3.685a1.327,1.327,0,0,1,.106-1.876h0a1.327,1.327,0,0,1,1.876.093h0a1.343,1.343,0,0,1-.106,1.889h0a1.318,1.318,0,0,1-.878.333h0A1.333,1.333,0,0,1,187.446,157.571Zm73.1.067h0a1.34,1.34,0,0,1-.12-1.876h0a1.317,1.317,0,0,1,1.876-.12h0a1.317,1.317,0,0,1,.12,1.876h0a1.3,1.3,0,0,1-1,.452h0A1.318,1.318,0,0,1,260.544,157.637Zm-69.04-3.513a1.324,1.324,0,0,1,.293-1.863h0a1.326,1.326,0,0,1,1.863.293h0a1.339,1.339,0,0,1-.307,1.863h0a1.27,1.27,0,0,1-.77.253h0A1.312,1.312,0,0,1,191.5,154.125Zm64.982.266a1.339,1.339,0,0,1-.294-1.863h0a1.351,1.351,0,0,1,1.864-.293h0a1.348,1.348,0,0,1,.293,1.863h0a1.33,1.33,0,0,1-1.078.546h0A1.343,1.343,0,0,1,256.486,154.391Zm-60.6-3.3a1.313,1.313,0,0,1,.479-1.809h0a1.339,1.339,0,0,1,1.823.466h0a1.33,1.33,0,0,1-.479,1.823h0a1.36,1.36,0,0,1-.665.186h0A1.339,1.339,0,0,1,195.881,151.091Zm56.267.452a1.316,1.316,0,0,1-.466-1.823h0a1.313,1.313,0,0,1,1.823-.466h0a1.323,1.323,0,0,1,.466,1.809h0a1.334,1.334,0,0,1-1.144.665h0A1.37,1.37,0,0,1,252.148,151.544Zm-51.61-3.034a1.338,1.338,0,0,1,.639-1.77h0a1.339,1.339,0,0,1,1.77.652h0a1.322,1.322,0,0,1-.639,1.77h0a1.409,1.409,0,0,1-.559.12h0A1.321,1.321,0,0,1,200.538,148.51Zm47.02.6h-.015a1.346,1.346,0,0,1-.637-1.77h0a1.353,1.353,0,0,1,1.783-.639h-.013a1.332,1.332,0,0,1,.652,1.77h0a1.359,1.359,0,0,1-1.211.772h0A1.191,1.191,0,0,1,247.558,149.109Zm-42.15-2.728a1.325,1.325,0,0,1,.812-1.69h0a1.329,1.329,0,0,1,1.7.812h0a1.325,1.325,0,0,1-.812,1.69h0a1.277,1.277,0,0,1-.439.08h0A1.357,1.357,0,0,1,205.408,146.381Zm37.347.745a1.329,1.329,0,0,1-.812-1.7h0a1.327,1.327,0,0,1,1.7-.8h0a1.327,1.327,0,0,1,.8,1.7h0a1.315,1.315,0,0,1-1.251.878h0A1.277,1.277,0,0,1,242.755,147.126Zm-32.278-2.395a1.315,1.315,0,0,1,.958-1.61h0a1.325,1.325,0,0,1,1.623.958h0a1.323,1.323,0,0,1-.971,1.61h0a1.32,1.32,0,0,1-.319.04h0A1.323,1.323,0,0,1,210.477,144.732Zm27.3.891a1.335,1.335,0,0,1-.958-1.623h0a1.321,1.321,0,0,1,1.61-.958h0a1.33,1.33,0,0,1,.971,1.61h0a1.332,1.332,0,0,1-1.291,1.011h0A1.51,1.51,0,0,1,237.779,145.623Zm-22.113-2.062a1.328,1.328,0,0,1,1.118-1.517h0a1.33,1.33,0,0,1,1.515,1.1h0a1.335,1.335,0,0,1-1.116,1.517h0a1.007,1.007,0,0,1-.2.013h0A1.319,1.319,0,0,1,215.666,143.561Zm17.03,1.051a1.328,1.328,0,0,1-1.118-1.517h0a1.324,1.324,0,0,1,1.5-1.118h0a1.312,1.312,0,0,1,1.118,1.5h0a1.328,1.328,0,0,1-1.3,1.144h0C232.829,144.625,232.763,144.612,232.7,144.612Zm-11.748-1.73a1.325,1.325,0,0,1,1.251-1.4h0a1.325,1.325,0,0,1,1.4,1.251h0a1.325,1.325,0,0,1-1.251,1.4h0a.148.148,0,0,1-.067.013h0A1.34,1.34,0,0,1,220.948,142.882Zm6.586,1.224a1.316,1.316,0,0,1-1.264-1.384h0a1.316,1.316,0,0,1,1.384-1.264h0a1.316,1.316,0,0,1,1.264,1.384h0a1.313,1.313,0,0,1-1.33,1.264h-.053Z" transform="translate(-84.291 -141.457)"/>
      </g>
      <g id="Grupo_3" data-name="Grupo 3" transform="translate(308.968 256.455)">
        <path id="Caminho_4" data-name="Caminho 4" class="cls-3" d="M317.841,336.843a1.333,1.333,0,0,1-.5-.092,1.171,1.171,0,0,1-.426-.294,1.324,1.324,0,0,1-.4-.931,1.308,1.308,0,0,1,.4-.945,1.364,1.364,0,0,1,1.876,0,1.294,1.294,0,0,1,.385.945,1.307,1.307,0,0,1-.385.931A1.322,1.322,0,0,1,317.841,336.843Z" transform="translate(-316.511 -334.207)"/>
      </g>
    </g>
    <g id="Grupo_5" data-name="Grupo 5" class="cls-4" transform="translate(82.278 121.392)">
      <circle id="Elipse_1" data-name="Elipse 1" class="cls-5" cx="5.082" cy="5.082" r="5.082" transform="translate(76.554 33.473)"/>
      <path id="Caminho_5" data-name="Caminho 5" class="cls-5" d="M123.752,197.755a3.815,3.815,0,1,1-3.815-3.815A3.816,3.816,0,0,1,123.752,197.755Z" transform="translate(-70.256 -97.415)"/>
      <path id="Caminho_6" data-name="Caminho 6" class="cls-5" d="M154.3,227.6a2.685,2.685,0,1,1-2.685-2.685A2.684,2.684,0,0,1,154.3,227.6Z" transform="translate(-59.412 -87.176)"/>
      <circle id="Elipse_2" data-name="Elipse 2" class="cls-5" cx="5.34" cy="5.34" r="5.34" transform="translate(233.979 63.42)"/>
      <path id="Caminho_7" data-name="Caminho 7" class="cls-5" d="M381.431,180.863a3.686,3.686,0,1,1-3.686-3.686A3.686,3.686,0,0,1,381.431,180.863Z" transform="translate(14.993 -102.955)"/>
      <circle id="Elipse_3" data-name="Elipse 3" class="cls-5" cx="3.124" cy="3.124" r="3.124" transform="translate(250.626 200.898)"/>
      <circle id="Elipse_4" data-name="Elipse 4" class="cls-5" cx="4.186" cy="4.186" r="4.186" transform="translate(347.653 171.073)"/>
      <path id="Caminho_8" data-name="Caminho 8" class="cls-5" d="M388.227,245.6h0a10.324,10.324,0,0,0,6.619,6.619h0a10.324,10.324,0,0,0-6.619,6.619h0a10.324,10.324,0,0,0-6.619-6.619h0a10.324,10.324,0,0,0,6.619-6.619Z" transform="translate(17.488 -80.34)"/>
      <path id="Caminho_9" data-name="Caminho 9" class="cls-5" d="M88.268,284.693h0a10.324,10.324,0,0,0,6.619,6.619h0a10.327,10.327,0,0,0-6.619,6.619h0a10.327,10.327,0,0,0-6.619-6.619h0a10.324,10.324,0,0,0,6.619-6.619Z" transform="translate(-81.649 -67.421)"/>
      <path id="Caminho_10" data-name="Caminho 10" class="cls-5" d="M216.6,121.392h0a10.324,10.324,0,0,0,6.619,6.619h0a10.324,10.324,0,0,0-6.619,6.619h0a10.33,10.33,0,0,0-6.619-6.619h0a10.33,10.33,0,0,0,6.619-6.619Z" transform="translate(-39.234 -121.392)"/>
      <path id="Caminho_11" data-name="Caminho 11" class="cls-5" d="M102.863,145.394h0a10.324,10.324,0,0,0,6.619,6.619h0a10.327,10.327,0,0,0-6.619,6.619h0a10.33,10.33,0,0,0-6.619-6.619h0a10.327,10.327,0,0,0,6.619-6.619Z" transform="translate(-76.825 -113.459)"/>
    </g>
    <g id="Grupo_7" data-name="Grupo 7" transform="translate(79.745 247.475)">
      <path id="Caminho_12" data-name="Caminho 12" class="cls-6" d="M217.969,374.208q-3.495-29.878-6.99-59.754c-.718-6.139-1.711-12.835-6.273-17-7.049-6.437-18.312-3.445-27.478-6.108-9.087-2.641-15.54-10.782-19.669-19.3s-6.569-17.8-11.123-26.1c-10.386-18.917-32.16-30.959-53.7-29.7-6.449,6.208-4.952,21.311-2.433,29.9s7.939,15.977,13.015,23.352,10.02,15.222,11.347,24.075c1.88,12.555-3.615,26.305,2.143,37.62,8.647,16.988,35.556,15.715,46.493,31.328,5.267,7.519,5.969,17.983,12.734,24.187,6.44,5.9,16.662,5.913,24.641,2.354S211.924,380.517,217.969,374.208Z" transform="translate(-76.969 -216.155)"/>
      <path id="Caminho_13" data-name="Caminho 13" class="cls-7" d="M194.07,362.021a32.792,32.792,0,0,0,10.812-7.842,147.145,147.145,0,0,0-96.761-56.208,23.493,23.493,0,0,0,2.081,6.182c8.647,16.988,35.556,15.715,46.493,31.328,5.267,7.519,5.969,17.983,12.734,24.187C175.869,365.572,186.091,365.58,194.07,362.021Z" transform="translate(-70.367 -189.115)"/>
      <g id="Grupo_6" data-name="Grupo 6" transform="translate(0 128.054)">
        <path id="Caminho_14" data-name="Caminho 14" class="cls-8" d="M231.918,378.708A147.914,147.914,0,0,0,79.745,315.191c12.049,29.234,34.384,56.693,62.829,70.5S204.518,394.489,231.918,378.708Z" transform="translate(-79.745 -312.4)"/>
        <path id="Caminho_15" data-name="Caminho 15" class="cls-9" d="M208,365.34q-21.384-6.676-42.834-13.745l-18.574-26.309a2,2,0,0,0-3.261,2.3l15.456,21.895q-15.758-5.229-31.448-10.627a1.965,1.965,0,0,0-.366-.746L112.232,319.52A2,2,0,1,0,109.105,322l11.518,14.526q-10.56-3.666-21.059-7.392a2,2,0,0,0-1.338,3.76q18.255,6.5,36.73,12.786l-28.1,4.635a2,2,0,1,0,.651,3.937l34.312-5.661a2,2,0,0,0,.785-.315q10.043,3.393,20.111,6.714a1.989,1.989,0,0,0,1.438.631,2.037,2.037,0,0,0,.319-.049q3.185,1.05,6.374,2.085a261.241,261.241,0,0,1-37.982,9.493,2,2,0,0,0,.334,3.962,1.954,1.954,0,0,0,.339-.028,264.968,264.968,0,0,0,43.624-11.369q14.832,4.806,29.642,9.437A2,2,0,0,0,208,365.34Z" transform="translate(-74.076 -310.297)"/>
      </g>
    </g>
    <g id="Grupo_11" data-name="Grupo 11" transform="translate(92.179 147.54)">
      <g id="Grupo_10" data-name="Grupo 10" class="cls-10">
        <g id="Grupo_9" data-name="Grupo 9" transform="translate(58.059 62.511)">
          <path id="Caminho_16" data-name="Caminho 16" class="cls-11" d="M232.675,276.039c13.614,3.9,23.676,15.394,31.224,27.376s13.509,25.123,23.015,35.619c9.457,10.443,22.037,17.745,35.353,22.344s27.4,6.613,41.453,7.6a23.83,23.83,0,0,1,8.96,19.471c-38.365,11.352-80.872,7.258-114.647-14.19-7.314-4.645-13.555-10.55-17.543-18.24s-5.746-16.313-7.351-24.827C229.74,313.155,227.057,293.516,232.675,276.039Z" transform="translate(-100.768 -158.94)"/>
          <path id="Caminho_17" data-name="Caminho 17" class="cls-12" d="M185.765,349.286c-17.67-5.3-30.77-22.116-33.45-40.369s4.345-37.251,16.864-50.8c4.317-4.673,9.391-8.974,11.735-14.888,2.6-6.549,1.388-13.885,1.134-20.926-.243-6.748.471-13.659,3.26-19.808s7.859-11.473,14.3-13.487c12.783-4,25.793,5.52,39.17,6.185,4.639.23,9.259-.619,13.9-.869s9.526.174,13.445,2.668,6.5,7.539,4.951,11.917c6.718.635,11.04,9.207,11.944,15.893s-1.118,13.374-2.878,19.887-3.276,13.449-1.4,19.93c1.436,4.953,4.738,9.176,6.412,14.055,3.324,9.686-.353,20.673-6.824,28.61S262.94,320.708,254.2,326.048c-13.244-5.824-30.3-2.817-39.455,8.389-4.172,5.108-6.815,11.425-11.539,16.027S192.083,351.182,185.765,349.286Z" transform="translate(-126.441 -188.028)"/>
          <path id="Caminho_18" data-name="Caminho 18" class="cls-9" d="M184.492,311.574a20.358,20.358,0,0,1,.945-31.884c6.494-4.847,16.017-6.021,20.174-12.976a117.913,117.913,0,0,1,37.034-38.3,19.368,19.368,0,0,1,6.622-3.087,7.437,7.437,0,0,1,6.811,1.792c1.327,1.4,1.825,3.375,2.278,5.254q2.61,10.865,5.222,21.732c2.028,8.437,4.054,17.3,1.795,25.683-2.915,10.8-12.3,18.494-21.553,24.783-7.117-2.807-12.956.3-19.622,4.053s-12.831,8.652-20.18,10.774S190.341,316.5,184.492,311.574Z" transform="translate(-118.012 -175.756)"/>
          <path id="Caminho_19" data-name="Caminho 19" class="cls-11" d="M284.631,428.876a164.563,164.563,0,0,0-.094-121.48c-4.457-11.051-10.569-22.094-20.647-28.454-10.158-6.409-22.782-7.123-34.789-7.488-10.955-.333-22.454-.407-32.161,4.682-9.385,4.92-15.805,14.025-21.046,23.235a184.521,184.521,0,0,0-22.766,69.06c-2.428,20.22-4.611,42.692,5.6,60.309,8.224,14.186,23.744,23.259,39.918,25.955s32.9-.451,48.164-6.441A186,186,0,0,0,284.631,428.876Z" transform="translate(-126.656 -160.498)"/>
          <path id="Caminho_20" data-name="Caminho 20" class="cls-9" d="M233.112,291.777c-2.469-.186-4.84.941-6.961,2.218s-4.18,2.757-6.57,3.4-5.273.253-6.8-1.7a18.8,18.8,0,0,0-3.535,5.374,16.64,16.64,0,0,0-8.362-2.048,301.836,301.836,0,0,0-47.241,58.754c-.185,1.3-.362,2.594-.518,3.9-1.7,14.157-3.274,29.415-.563,43.34a16.885,16.885,0,0,0,5.4,1.107c9.274.14,17.858-5.044,24.649-11.36,11.356-10.561,19.113-24.521,24.372-39.109,4.69-13.008,7.629-26.241,10.259-39.757,3.76-5.761,9.806-10.182,15.846-13.76,2.276-1.349,4.887-3.105,4.932-5.75C238.064,293.913,235.581,291.963,233.112,291.777Z" transform="translate(-126.655 -153.745)"/>
          <path id="Caminho_21" data-name="Caminho 21" class="cls-13" d="M202.176,253.029q-1.052,17.764-2.1,35.528c8.651,3.846,19.286,5.635,28.538,3.631-.043-11.088-.522-23.569-.563-34.657C221.811,252.124,210.051,250.56,202.176,253.029Z" transform="translate(-110.471 -166.921)"/>
          <path id="Caminho_22" data-name="Caminho 22" class="cls-7" d="M228.3,285.864c-.142-9.369-.462-19.307-.5-28.333-6.235-5.407-17.995-6.972-25.87-4.5l-1.13,19.065A83.839,83.839,0,0,0,228.3,285.864Z" transform="translate(-110.228 -166.921)"/>
          <path id="Caminho_23" data-name="Caminho 23" class="cls-13" d="M255.221,226.2a106.169,106.169,0,0,1-12.479,59.183c-13.708,4.335-29.562,1.7-40.5-7.632s-16.43-24.747-13.5-38.825,14.3-26.135,28.266-29.541S246.795,214.548,255.221,226.2Z" transform="translate(-114.475 -181.219)"/>
          <path id="Caminho_24" data-name="Caminho 24" class="cls-7" d="M237.5,249.357c-2.131-1.835-4.436-3.254-6.566-5.089a8.527,8.527,0,0,0-2.407,1.8,14.867,14.867,0,0,0,7,13.886c1.171-3.16,2.179-6.38,3.046-9.638C238.224,249.988,237.861,249.669,237.5,249.357Z" transform="translate(-101.068 -169.44)"/>
          <path id="Caminho_25" data-name="Caminho 25" class="cls-12" d="M265.513,240.752a23.763,23.763,0,0,1-18.084-6.176c2.06,5.347-4.093,10.8-9.091,13.6s-10.872,3.841-15.711,6.911c-5.152,3.266-8.656,8.51-12.135,13.519s-7.294,10.114-12.744,12.854-12.99,2.3-16.643-2.586c-1.111-11.895-3.76-24.033-1.743-35.808s6.992-23.366,15.773-31.466a42.987,42.987,0,0,1,43.7-8.294C253.4,208.96,264.177,225.185,265.513,240.752Z" transform="translate(-117.558 -183.876)"/>
          <path id="Caminho_26" data-name="Caminho 26" class="cls-13" d="M242.144,248.833c1.476.213,3.187.7,3.686,2.108a2.924,2.924,0,0,1-1.251,3.177,7.624,7.624,0,0,1-3.457,1.1c-7.6,1.025-8.3-1.925-12.467-6.09-1.094-1.1-.718-3.144.1-4.455C230.683,241.6,238.251,248.271,242.144,248.833Z" transform="translate(-101.248 -169.572)"/>
          <ellipse id="Elipse_5" data-name="Elipse 5" class="cls-14" cx="1.951" cy="4.061" rx="1.951" ry="4.061" transform="translate(116.121 66.801)"/>
          <ellipse id="Elipse_6" data-name="Elipse 6" class="cls-14" cx="1.951" cy="4.061" rx="1.951" ry="4.061" transform="translate(134.315 66.801)"/>
          <path id="Caminho_27" data-name="Caminho 27" class="cls-15" d="M230.17,249.848c0,2.241-3.761,4.058-8.4,4.058s-8.4-1.817-8.4-4.058,3.761-4.057,8.4-4.057S230.17,247.607,230.17,249.848Z" transform="translate(-106.076 -168.937)"/>
          <path id="Caminho_28" data-name="Caminho 28" class="cls-11" d="M211.329,272.673a152.017,152.017,0,0,0-62.889,58.968c-7.384,12.66-13.262,28.381-15.226,42.9-.73,5.4-.985,11.244,1.8,15.93,3.353,5.647,10.467,8.173,17.024,7.821,10.91-.585,20.355-7.7,28.022-15.482C207.646,354.8,219.592,311.112,211.329,272.673Z" transform="translate(-132.728 -160.053)"/>
          <path id="Caminho_29" data-name="Caminho 29" class="cls-13" d="M183.382,318.773a12.771,12.771,0,0,0-5.22-19.794c-1.784-.72-4.039-1.34-4.509-3.207s1.484-3.654,3.419-3.791,3.757.82,5.495,1.682,3.672,1.679,5.564,1.249c3.752-.85,5.2-5.975,8.894-7.034,2.479-.709,5.11.724,6.857,2.621s2.92,4.254,4.6,6.208,4.168,3.551,6.707,3.1a10.394,10.394,0,0,0,4.2-2.286,8.689,8.689,0,0,1,4.288-2.082c1.6-.137,3.423.913,3.529,2.521.138,2.1-2.334,3.23-4.28,4.031-6.373,2.624-11.319,7.8-15.667,13.148s-8.368,11.066-13.725,15.4C188.485,328.93,184.811,323.882,183.382,318.773Z" transform="translate(-119.225 -155.088)"/>
          <path id="Caminho_30" data-name="Caminho 30" class="cls-11" d="M133.746,371.795a247.8,247.8,0,0,1,62.891-61.681c6.369.77,11.136,5.636,12.857,11.562-4.3,11.759-8.7,23.205-14.892,34.166s-14.369,21.122-25.108,28.149c-6.424,4.2-14.191,7.292-21.863,6.068S129.389,377.968,133.746,371.795Z" transform="translate(-132.728 -147.678)"/>
          <path id="Caminho_31" data-name="Caminho 31" class="cls-16" d="M225.005,212.93a36.088,36.088,0,0,0-28.985,30.1,23.128,23.128,0,0,1-8.636-1.727c1.535-8.22,5.744-16.833,12.561-21.673S216.74,211.668,225.005,212.93Z" transform="translate(-114.664 -179.891)"/>
          <ellipse id="Elipse_7" data-name="Elipse 7" class="cls-16" cx="14.004" cy="19.655" rx="14.004" ry="19.655" transform="translate(62.568 53.86)"/>
          <g id="Grupo_8" data-name="Grupo 8" transform="translate(76.215 69.552)">
            <path id="Caminho_32" data-name="Caminho 32" class="cls-16" d="M218.941,272.262A34.5,34.5,0,0,1,205.3,266.98a35.16,35.16,0,0,1-15.289-26.594l1.328-.083a33.167,33.167,0,0,0,43.953,29.32l.436,1.257A34.718,34.718,0,0,1,218.941,272.262Z" transform="translate(-190.011 -240.303)"/>
          </g>
          <circle id="Elipse_8" data-name="Elipse 8" class="cls-16" cx="2.596" cy="2.596" r="2.596" transform="translate(118.901 96.277)"/>
        </g>
        <rect id="Retângulo_1" data-name="Retângulo 1" class="cls-17" width="404.624" height="18.961" transform="translate(-31.955 311.763)"/>
      </g>
    </g>
    <g id="Grupo_12" data-name="Grupo 12" transform="translate(288.375 341.8)">
      <path id="Caminho_34" data-name="Caminho 34" class="cls-18" d="M274.813,393.1h146.11l25.926-90.414c2.476-8.634-2.516-15.633-11.15-15.633H320.854c-8.634,0-17.64,7-20.116,15.633Z" transform="translate(-223.905 -287.05)"/>
      <path id="Retângulo_2" data-name="Retângulo 2" class="cls-18" d="M7.145,0H190.321a7.146,7.146,0,0,1,7.146,7.146v4.31a0,0,0,0,1,0,0H0a0,0,0,0,1,0,0V7.145A7.145,7.145,0,0,1,7.145,0Z" transform="translate(197.467 117.503) rotate(180)"/>
      <path id="Retângulo_3" data-name="Retângulo 3" class="cls-7" d="M7.145,0H190.321a7.146,7.146,0,0,1,7.146,7.146v4.31a0,0,0,0,1,0,0H0a0,0,0,0,1,0,0V7.145A7.145,7.145,0,0,1,7.145,0Z" transform="translate(197.467 117.503) rotate(180)"/>
      <path id="Caminho_35" data-name="Caminho 35" class="cls-7" d="M332.276,329.391c-1.586,5.531,1.613,10.015,7.143,10.015s11.3-4.484,12.886-10.015-1.611-10.015-7.142-10.015S333.862,323.858,332.276,329.391Z" transform="translate(-205.047 -276.366)"/>
    </g>
    <path id="Caminho_36" data-name="Caminho 36" class="cls-19" d="M326.1,172.36c-28.819,0-52.181,18.615-52.181,41.578,0,9.331,3.858,17.944,10.371,24.882l-10.371,16.83,26-5.752a62.35,62.35,0,0,0,26.183,5.619c28.819,0,52.181-18.615,52.181-41.578S354.917,172.36,326.1,172.36Z" transform="translate(64.174 16.845)"/>
  </g>
</svg>
