<svg xmlns="http://www.w3.org/2000/svg" width="113.95" height="29.411" viewBox="0 0 113.95 29.411"><defs><style>.a,.c,.d{fill:#fff;}.b{fill:#201e20;}.c{font-size:13px;font-family:Montserrat-Bold, Montserrat;font-weight:700;}.d{font-size:5px;font-family:Nunito-Regular, Nunito;}</style></defs><g transform="translate(-8.05 -19)"><g transform="translate(-26.696 -36.347)"><g transform="translate(34.746 55.347)"><path class="a" d="M14.705,0A14.705,14.705,0,1,1,0,14.705,14.705,14.705,0,0,1,14.705,0Z" transform="translate(0 0)"/><g transform="translate(2.062 2.062)"><path class="b" d="M50.167,59.115A12.644,12.644,0,1,0,62.81,71.759,12.658,12.658,0,0,0,50.167,59.115ZM52.209,82.64l-.375-2.871a7.283,7.283,0,0,0,6.224-7.5.9.9,0,0,0-.992-.875l-4.393.457a3.422,3.422,0,0,0-3.51-1.2L47.769,68.5a.9.9,0,0,0-1.625.266l-.4,1.574-1.677-1.744a.9.9,0,0,0-1.539.739l1.519,11.645a11.061,11.061,0,1,1,8.162,1.665Z" transform="translate(-37.523 -59.115)"/><path class="b" d="M54.023,63.748a10.174,10.174,0,0,0-5.653,1.7.786.786,0,0,0,.437,1.44.778.778,0,0,0,.434-.131,8.614,8.614,0,0,1,4.782-1.441.786.786,0,1,0,0-1.573Z" transform="translate(-40.226 -60.308)"/><path class="b" d="M62.629,65.292a10.207,10.207,0,0,0-2.378-1.168.786.786,0,1,0-.5,1.489,8.6,8.6,0,0,1,2.01.988.786.786,0,1,0,.871-1.31Z" transform="translate(-43.106 -60.393)"/></g></g></g><text class="c" transform="translate(41 37)"><tspan x="0" y="0">LAIKACODE</tspan></text><text class="d" transform="translate(74 43)"><tspan x="0" y="0">SOFTWARE STUDIO</tspan></text><path class="a" d="M125.574,55.8a.551.551,0,0,0-.522-.044,2.2,2.2,0,0,1-3.08-2,.55.55,0,0,0-.771-.5,3.3,3.3,0,1,0,4.623,3.026.589.589,0,0,0,0-.066.55.55,0,0,0-.247-.417Zm-3.053,2.686a2.2,2.2,0,0,1-1.511-3.8,3.316,3.316,0,0,0,3.163,2.358,3.375,3.375,0,0,0,.426-.027,2.206,2.206,0,0,1-2.078,1.472Zm0,0" transform="translate(-61.446 -34.209)"/></g></svg>