<svg id="Camada_1" data-name="Camada 1" xmlns="http://www.w3.org/2000/svg" xmlns:xlink="http://www.w3.org/1999/xlink" viewBox="0 0 64.23 12.44"><defs><style>.cls-1{fill:url(#linear-gradient);}.cls-2{fill:url(#linear-gradient-2);}.cls-3,.cls-5{font-size:7.69px;fill:#110824;font-family:Raleway-ExtraBold, Raleway;font-weight:800;}.cls-3{letter-spacing:-0.02em;}.cls-4{fill:url(#linear-gradient-3);}.cls-6{letter-spacing:0em;}.cls-7{letter-spacing:-0.02em;}.cls-8{letter-spacing:-0.03em;}</style><linearGradient id="linear-gradient" x1="11.72" y1="34.22" x2="21.73" y2="34.22" gradientUnits="userSpaceOnUse"><stop offset="0" stop-color="#dc47a0"/><stop offset="1" stop-color="#f9ea8e"/></linearGradient><linearGradient id="linear-gradient-2" x1="15.24" y1="28" x2="18.48" y2="28" xlink:href="#linear-gradient"/><linearGradient id="linear-gradient-3" x1="26.04" y1="33.56" x2="30.12" y2="33.56" xlink:href="#linear-gradient"/></defs><title>logo-principal</title><g id="Icon"><path class="cls-1" d="M21.69,37.3l-.81-3.24a1.21,1.21,0,0,0-1.18-.92h-2v-2.3a1.22,1.22,0,0,0-1.76-1.09l-1.62.81a1.21,1.21,0,0,0-.67,1.09v.75a3.41,3.41,0,0,0-1.9,3,3.38,3.38,0,0,0,6.76.14h.27l.58,2.32a1.22,1.22,0,1,0,2.36-.59Zm-7-6,1.62-.81a.39.39,0,0,1,.35,0h0a.39.39,0,0,1,.24.37v1.71a3,3,0,0,0-.81-.36v0a.41.41,0,0,0-.81,0v1.93a.41.41,0,1,1-.81,0V31.65h0A.39.39,0,0,1,14.65,31.29ZM15.1,38a2.57,2.57,0,0,1-2.56-2.57,2.54,2.54,0,0,1,1.08-2.09v.74a1.22,1.22,0,1,0,2.43,0v-1a2.54,2.54,0,0,1,.92.62h0l.1.11v0a2.51,2.51,0,0,1,.58,1.62A2.57,2.57,0,0,1,15.1,38Zm5.51,0a.4.4,0,0,1-.49-.29l-.66-2.63a.41.41,0,0,0-.39-.31h-.65a3.24,3.24,0,0,0-.28-.81H19.7a.39.39,0,0,1,.39.3l.82,3.25A.4.4,0,0,1,20.61,38Z" transform="translate(-11.72 -26.38)"/><path class="cls-2" d="M16.86,26.38A1.62,1.62,0,1,0,18.48,28,1.62,1.62,0,0,0,16.86,26.38Zm0,2.43a.81.81,0,1,1,.81-.81A.81.81,0,0,1,16.86,28.81Z" transform="translate(-11.72 -26.38)"/></g><text class="cls-3" transform="translate(10.85 9.2)">r</text><path class="cls-4" d="M28.08,31.52a2,2,0,1,0,2,2A2,2,0,0,0,28.08,31.52Zm0,3.06a1,1,0,1,1,1-1A1,1,0,0,1,28.08,34.58Z" transform="translate(-11.72 -26.38)"/><text class="cls-5" transform="translate(18.6 9.2)">da</text><text class="cls-5" transform="translate(29.59 9.2)">a<tspan class="cls-6" x="4.51" y="0">c</tspan><tspan x="8.86" y="0">essí</tspan><tspan class="cls-7" x="23.26" y="0">v</tspan><tspan x="27.4" y="0">e</tspan><tspan class="cls-8" x="32.04" y="0">l</tspan></text></svg>