<svg id="Camada_1" data-name="Camada 1" xmlns="http://www.w3.org/2000/svg" xmlns:xlink="http://www.w3.org/1999/xlink" viewBox="0 0 107.36 64.24"><defs><style>.cls-1{fill:url(#linear-gradient);}.cls-2{fill:url(#linear-gradient-2);}.cls-3,.cls-5{font-size:23.84px;fill:#fff;font-family:Raleway-ExtraBold, Raleway;font-weight:800;}.cls-3{letter-spacing:-0.02em;}.cls-4{fill:url(#linear-gradient-3);}.cls-6{letter-spacing:0em;}.cls-7{letter-spacing:0em;}.cls-8{letter-spacing:-0.02em;}.cls-9{letter-spacing:0em;}.cls-10{letter-spacing:-0.03em;}</style><linearGradient id="linear-gradient" x1="87.66" y1="60.54" x2="118" y2="60.54" gradientUnits="userSpaceOnUse"><stop offset="0" stop-color="#dc47a0"/><stop offset="1" stop-color="#f9ea8e"/></linearGradient><linearGradient id="linear-gradient-2" x1="98.32" y1="41.68" x2="108.16" y2="41.68" xlink:href="#linear-gradient"/><linearGradient id="linear-gradient-3" x1="33.83" y1="68.64" x2="46.48" y2="68.64" xlink:href="#linear-gradient"/></defs><title>Sem título-1</title><g id="Icon"><path class="cls-1" d="M117.89,69.89l-2.46-9.84a3.67,3.67,0,0,0-3.58-2.78H105.7v-7a3.7,3.7,0,0,0-5.34-3.3l-4.92,2.46a3.65,3.65,0,0,0-2,3.3V55a10.34,10.34,0,0,0-3.92,3.36,10.25,10.25,0,1,0,18.66,6.26H109l1.76,7a3.69,3.69,0,1,0,7.16-1.79ZM96.54,51.65l4.92-2.46a1.24,1.24,0,0,1,1.05,0h0a1.25,1.25,0,0,1,.74,1.13v5.18a10.12,10.12,0,0,0-2.47-1.08v-.12a1.23,1.23,0,1,0-2.45,0v5.86a1.24,1.24,0,0,1-2.47,0V52.75h0A1.22,1.22,0,0,1,96.54,51.65ZM97.91,72a7.79,7.79,0,0,1-4.5-14.15v2.26a3.69,3.69,0,1,0,7.37,0V57a7.8,7.8,0,0,1,2.79,1.89l0,.05a4.12,4.12,0,0,1,.28.31l0,.06a7.8,7.8,0,0,1-6,12.73Zm16.7,0a1.22,1.22,0,0,1-1.49-.89l-2-8a1.21,1.21,0,0,0-1.19-.92h-2a9.84,9.84,0,0,0-.83-2.47h4.73a1.21,1.21,0,0,1,1.19.93l2.46,9.84A1.22,1.22,0,0,1,114.61,72Z" transform="translate(-22.29 -36.76)"/><path class="cls-2" d="M103.24,36.76a4.92,4.92,0,1,0,4.92,4.92A4.93,4.93,0,0,0,103.24,36.76Zm0,7.38a2.46,2.46,0,1,1,2.46-2.46A2.46,2.46,0,0,1,103.24,44.14Z" transform="translate(-22.29 -36.76)"/></g><text class="cls-3" transform="translate(0.8 38.14)">r</text><path class="cls-4" d="M40.16,62.32a6.32,6.32,0,1,0,6.32,6.32A6.33,6.33,0,0,0,40.16,62.32Zm0,9.48a3.16,3.16,0,1,1,3.16-3.16A3.17,3.17,0,0,1,40.16,71.8Z" transform="translate(-22.29 -36.76)"/><text class="cls-5" transform="translate(24.82 38.14)">da</text><text class="cls-5" transform="translate(0 58.73)">a<tspan class="cls-6" x="13.97" y="0">c</tspan><tspan class="cls-7" x="27.44" y="0">essí</tspan><tspan class="cls-8" x="72.08" y="0">v</tspan><tspan class="cls-9" x="84.9" y="0">e</tspan><tspan class="cls-10" x="99.3" y="0">l</tspan></text></svg>